<?xml version="1.0" encoding="UTF-8" standalone="no"?>
<svg
   xmlns:dc="http://purl.org/dc/elements/1.1/"
   xmlns:cc="http://creativecommons.org/ns#"
   xmlns:rdf="http://www.w3.org/1999/02/22-rdf-syntax-ns#"
   xmlns:svg="http://www.w3.org/2000/svg"
   xmlns="http://www.w3.org/2000/svg"
   viewBox="0 0 842.66669 173.33333"
   height="173.33333"
   width="842.66669"
   xml:space="preserve"
   id="svg2"
   version="1.1"><metadata
     id="metadata8"><rdf:RDF><cc:Work
         rdf:about=""><dc:format>image/svg+xml</dc:format><dc:type
           rdf:resource="http://purl.org/dc/dcmitype/StillImage" /></cc:Work></rdf:RDF></metadata><defs
     id="defs6" /><g
     transform="matrix(1.3333333,0,0,-1.3333333,0,173.33333)"
     id="g10"><g
       transform="scale(0.1)"
       id="g12"><path
         id="path14"
         style="fill:#e36900;fill-opacity:1;fill-rule:nonzero;stroke:none"
         d="m 681.441,544.934 c 0,15.343 -6.242,30.207 -19.187,44.597 -12.469,14.383 -28.281,26.852 -47.953,37.395 -19.172,10.547 -39.793,18.699 -61.371,24.453 -21.098,5.75 -41.715,8.637 -60.903,8.637 -165.414,0 -247.898,-68.086 -247.898,-204.278 0,-57.539 22.055,-104.043 65.695,-139.531 43.637,-35.488 95.422,-53.223 155.832,-53.223 19.66,0 41.239,2.871 65.692,8.625 24.465,5.754 47.484,13.903 70.007,24.465 22.059,10.547 41.243,23.489 56.583,38.832 15.824,15.352 23.503,33.574 23.503,54.668 z m 2.872,-405.668 v 0 C 665.137,110.492 630.613,83.6484 580.266,58.707 530.398,33.7813 469.5,21.3125 398.059,21.3125 c -53.715,0 -104.063,9.5859 -151.532,28.7734 C 199.531,69.2695 157.82,97.5508 122.336,134.961 86.8477,172.355 58.5664,217.426 38.4219,270.176 18.2852,322.922 8.21484,382.859 8.21484,449.984 c 0,138.098 39.80466,243.594 119.87116,316.473 80.086,72.895 184.605,109.328 313.594,109.328 46.031,0 89.668,-5.265 129.945,-15.828 40.281,-10.543 77.203,-34.035 109.816,-70.484 0,52.273 -5.281,94.461 -15.828,126.59 -11.031,32.128 -25.886,56.582 -45.558,74.332 -19.172,17.265 -44.114,29.735 -74.317,36.435 -30.203,6.71 -63.297,10.07 -100.211,10.07 -45.074,0 -83.449,-7.19 -115.574,-21.58 -32.113,-14.38 -60.41,-32.117 -85.824,-53.222 L 137.672,1141.91 c 38.375,41.73 86.312,73.86 144.344,96.86 57.539,22.54 121.793,34.05 193.238,34.05 132.816,0 239.746,-39.8 320.781,-119.4 81.043,-79.6 121.324,-188.44 121.324,-326.537 V 32.8203 H 684.313 Z M 1625.1,9.80469 v 0 c -78.64,0 -149.61,15.33981 -212.9,46.03511 -63.3,30.6915 -116.52,74.3282 -159.67,130.9062 -43.16,56.578 -76.25,124.668 -99.26,204.266 -23.02,79.593 -34.53,168.304 -34.53,266.117 0,90.156 12.47,173.586 37.41,250.312 24.94,76.711 59.93,142.889 105,198.509 45.08,55.62 98.31,98.78 159.69,129.47 61.36,30.68 129.46,46.03 204.26,46.03 72.89,0 137.62,-14.39 194.2,-43.16 56.58,-28.77 104.05,-66.16 142.42,-112.19 L 1783.34,973.605 c -15.35,21.11 -34.52,37.405 -57.54,48.915 -23.02,11.51 -56.58,17.27 -100.7,17.27 -82.47,0 -147.21,-35.49 -194.19,-106.462 -47,-70.957 -70.5,-163.984 -70.5,-279.066 0,-266.61 88.23,-399.914 264.69,-399.914 70.97,0 129.47,24.937 175.51,74.8 L 1996.24,191.051 C 1898.42,70.2148 1774.71,9.80469 1625.1,9.80469 Z M 2668.04,1059.91 v 0 c -77.22,0 -139.55,-29.73 -187.98,-89.664 -48.43,-59.937 -74.31,-133.777 -78.16,-221.051 h 512.12 c -3.84,87.274 -27.82,161.114 -72.41,221.051 -44.11,59.934 -102.13,89.664 -173.57,89.664 z M 2401.9,507.527 v 0 c 0,-38.355 8.15,-72.879 24.47,-103.574 16.29,-30.68 37.39,-56.578 63.29,-77.672 25.88,-21.093 54.66,-37.41 86.31,-48.918 31.64,-11.508 63.77,-17.261 96.37,-17.261 42.2,0 79.12,5.753 110.78,17.261 31.64,11.508 58.97,31.657 81.99,60.426 L 3023.34,191.051 C 2977.31,129.68 2924.09,85.5703 2863.66,58.707 2803.25,31.8594 2736.6,18.4453 2663.71,18.4453 2494.93,20.3516 2368.82,74.5352 2285.38,180.992 2201.96,287.434 2160.23,439.441 2160.23,637 c 0,99.727 11.51,190.355 34.52,271.875 23.02,81.52 56.6,151.035 100.7,208.585 44.12,57.54 97.82,101.65 161.12,132.34 63.29,30.69 134.25,46.04 212.9,46.04 145.76,0 262.77,-54.19 351,-162.55 88.22,-108.37 131.38,-267.091 129.46,-476.161 0,-23.012 -0.47,-46.5 -1.43,-70.481 -0.96,-23.976 -1.44,-48.429 -1.44,-73.367 H 2401.9 Z M 3405.98,340.66 v 0 c 40.28,-33.566 88.7,-56.582 145.3,-68.562 56.58,-11.996 111.72,-17.75 165.42,-17.75 59.46,0 108.85,11.035 148.17,33.086 39.32,22.058 58.98,58.507 58.98,108.371 0,36.445 -13.91,68.57 -41.72,96.383 -27.81,28.296 -75.27,47.953 -142.42,59.46 -53.69,9.59 -105.48,21.571 -155.36,35.961 -49.86,14.379 -93.97,35.489 -132.34,63.297 -38.36,27.805 -69.05,63.289 -92.06,105.481 -23.02,42.199 -34.53,97.343 -34.53,164.468 0,61.387 11.03,115.085 33.09,160.155 22.06,45.09 53.22,82.01 93.5,110.78 40.28,29.24 87.76,50.34 142.42,63.76 54.67,13.43 114.61,20.15 179.81,20.15 128.51,0 235.92,-31.65 322.23,-94.95 l -71.92,-244.539 c -38.37,38.355 -79.6,64.239 -123.72,77.669 -44.11,13.44 -93.97,20.15 -149.6,20.15 -44.12,0 -84.39,-5.28 -120.85,-15.83 -36.42,-10.54 -57.53,-37.88 -63.29,-81.989 -5.75,-46.035 16.32,-80.559 66.18,-103.574 49.86,-23.016 117.96,-44.125 204.26,-63.293 97.83,-21.11 175.98,-58.981 234.49,-113.649 58.5,-54.656 87.75,-135.699 87.75,-243.105 0,-70.969 -12.48,-131.383 -37.4,-181.262 -24.94,-49.859 -58.99,-90.613 -102.14,-122.269 -43.16,-31.641 -93.99,-54.6567 -152.48,-69.0473 -58.5,-14.3789 -120.36,-21.5664 -185.57,-21.5664 -55.62,0 -114.6,8.1485 -176.93,24.4492 -62.34,16.3008 -124.2,42.6758 -185.59,79.1095 z m 998.32,0 v 0 c 40.29,-33.566 88.71,-56.582 145.31,-68.562 56.58,-11.996 111.72,-17.75 165.41,-17.75 59.47,0 108.86,11.035 148.18,33.086 39.32,22.058 58.98,58.507 58.98,108.371 0,36.445 -13.91,68.57 -41.72,96.383 -27.81,28.296 -75.28,47.953 -142.42,59.46 -53.7,9.59 -105.48,21.571 -155.36,35.961 -49.86,14.379 -93.97,35.489 -132.34,63.297 -38.36,27.805 -69.05,63.289 -92.07,105.481 -23.02,42.199 -34.52,97.343 -34.52,164.468 0,61.387 11.03,115.085 33.09,160.155 22.05,45.09 53.22,82.01 93.5,110.78 40.27,29.24 87.76,50.34 142.41,63.76 54.68,13.43 114.61,20.15 179.82,20.15 128.51,0 235.91,-31.65 322.23,-94.95 l -71.92,-244.539 c -38.37,38.355 -79.6,64.239 -123.72,77.669 -44.12,13.44 -93.98,20.15 -149.61,20.15 -44.11,0 -84.39,-5.28 -120.84,-15.83 -36.43,-10.54 -57.54,-37.88 -63.29,-81.989 -5.76,-46.035 16.32,-80.559 66.18,-103.574 49.86,-23.016 117.95,-44.125 204.26,-63.293 97.82,-21.11 175.98,-58.981 234.48,-113.649 58.5,-54.656 87.75,-135.699 87.75,-243.105 0,-70.969 -12.47,-131.383 -37.4,-181.262 -24.94,-49.859 -58.98,-90.613 -102.13,-122.269 -43.17,-31.641 -93.99,-54.6567 -152.48,-69.0473 -58.51,-14.3789 -120.36,-21.5664 -185.58,-21.5664 -55.62,0 -114.59,8.1485 -176.93,24.4492 -62.33,16.3008 -124.19,42.6758 -185.58,79.1095 z m 1425.58,719.25 v 0 c -77.21,0 -139.54,-29.73 -187.97,-89.664 -48.43,-59.937 -74.32,-133.777 -78.16,-221.051 h 512.11 c -3.83,87.274 -27.81,161.114 -72.41,221.051 -44.11,59.934 -102.12,89.664 -173.57,89.664 z M 5563.75,507.527 v 0 c 0,-38.355 8.15,-72.879 24.46,-103.574 16.31,-30.68 37.4,-56.578 63.3,-77.672 25.88,-21.093 54.65,-37.41 86.31,-48.918 31.64,-11.508 63.77,-17.261 96.37,-17.261 42.2,0 79.12,5.753 110.77,17.261 31.65,11.508 58.98,31.657 82,60.426 L 6185.19,191.051 C 6139.15,129.68 6085.93,85.5703 6025.51,58.707 5965.09,31.8594 5898.45,18.4453 5825.56,18.4453 5656.77,20.3516 5530.67,74.5352 5447.23,180.992 5363.8,287.434 5322.07,439.441 5322.07,637 c 0,99.727 11.51,190.355 34.53,271.875 23.02,81.52 56.59,151.035 100.7,208.585 44.11,57.54 97.82,101.65 161.12,132.34 63.29,30.69 134.25,46.04 212.9,46.04 145.76,0 262.77,-54.19 351,-162.55 88.22,-108.37 131.38,-267.091 129.46,-476.161 0,-23.012 -0.48,-46.5 -1.44,-70.481 -0.96,-23.976 -1.43,-48.429 -1.43,-73.367 h -745.16 v -5.754" /></g></g></svg>